<svg width="15" height="15" viewBox="0 0 15 15" fill="none" xmlns="http://www.w3.org/2000/svg">
<path d="M14.5312 8.4375C13.4135 8.4375 1.71425 8.4375 1.40625 8.4375V6.79688H2.34375C2.60265 6.79688 2.8125 6.58699 2.8125 6.32812V5.15625C2.8125 4.89738 2.60265 4.6875 2.34375 4.6875C2.08485 4.6875 1.875 4.89738 1.875 5.15625V5.85938H1.40625V1.79458C1.40625 1.0357 2.33092 0.650127 2.86937 1.18854L3.36565 1.68483C2.97237 2.37041 3.06788 3.26203 3.65291 3.84709L3.88729 4.08146C4.0703 4.26451 4.36714 4.26454 4.55019 4.08146L6.42519 2.20647C6.60826 2.02342 6.60826 1.72661 6.42519 1.54356L6.19081 1.30919C5.59462 0.712969 4.70145 0.633603 4.0282 1.02158L3.53227 0.525645C3.1933 0.18668 2.74266 0 2.26333 0C1.2738 0 0.46875 0.805049 0.46875 1.79458V8.4375C0.209854 8.4375 0 8.64738 0 8.90625C0 9.16512 0.209854 9.375 0.46875 9.375V10.3125C0.46875 11.5983 1.04713 12.7514 1.95721 13.5258L1.30277 14.2063C1.01558 14.505 1.23114 15 1.64057 15C1.76358 15 1.88648 14.9518 1.97848 14.8562L2.74658 14.0574C3.32795 14.36 3.98807 14.5312 4.6875 14.5312H10.3125C11.0119 14.5312 11.6721 14.36 12.2534 14.0574L13.0215 14.8562C13.2004 15.0422 13.4971 15.0491 13.6843 14.8691C13.8709 14.6897 13.8767 14.3929 13.6972 14.2063L13.0428 13.5258C13.9529 12.7514 14.5312 11.5983 14.5312 10.3125V9.375C14.7901 9.375 15 9.16512 15 8.90625C15 8.64738 14.7901 8.4375 14.5312 8.4375ZM5.42314 1.88268L4.22651 3.07931C3.98493 2.74453 4.0147 2.2732 4.31581 1.97206C4.61985 1.66805 5.09103 1.64221 5.42314 1.88268ZM13.5938 10.3125C13.5938 12.1218 12.1218 13.5938 10.3125 13.5938H4.6875C2.87821 13.5938 1.40625 12.1218 1.40625 10.3125V9.375H13.5938V10.3125Z" fill="black"/>
</svg>
