<svg width="20" height="15" viewBox="0 0 20 15" fill="none" xmlns="http://www.w3.org/2000/svg">
<path d="M2.16215 6.82715H17.5748C18.7682 6.82869 19.7354 7.79575 19.7369 8.98908V12.8648H7.70969e-05V9.00716C3.85485e-05 9.00182 0 8.99552 0 8.98923C0 7.79514 0.967991 6.82713 2.16209 6.82713H2.16216L2.16215 6.82715ZM18.8398 11.9677V8.98923C18.8387 8.29101 18.273 7.72529 17.5749 7.72427H2.16215H2.16207C1.46345 7.72427 0.8971 8.2906 0.8971 8.98923C0.8971 8.99396 0.897139 8.99868 0.897196 9.0034V9.00269V11.9677L18.8398 11.9677ZM3.01441 0H16.7225C17.916 0.00154194 18.8831 0.968607 18.8846 2.16193V7.72428H0.852345V2.16209C0.853887 0.968627 1.82095 0.00154194 3.01428 0H3.01441ZM17.9875 6.82713V2.16211C17.9864 1.4639 17.4207 0.898179 16.7226 0.897138H3.01437C2.31617 0.898179 1.75045 1.4639 1.74941 2.16201V6.82715L17.9875 6.82713ZM5.58914 3.41807H8.15493C9.34839 3.41962 10.3155 4.38668 10.317 5.58001V7.7243H3.42707V5.58014C3.42862 4.38668 4.3957 3.4196 5.58903 3.41805H5.58918L5.58914 3.41807ZM9.4199 6.82717V5.58014C9.41888 4.88193 8.85316 4.31621 8.15504 4.31517H5.58914C4.89095 4.31621 4.32524 4.88193 4.32421 5.58005V6.82715L9.4199 6.82717ZM11.582 3.41807H14.1478C15.3412 3.41962 16.3083 4.38668 16.3099 5.58001V7.7243H9.4199V5.58014C9.42144 4.38668 10.3885 3.4196 11.5819 3.41805H11.582L11.582 3.41807ZM15.4127 6.82717V5.58014C15.4117 4.88193 14.846 4.31621 14.1479 4.31517H11.582C10.8838 4.31621 10.3181 4.88193 10.317 5.58005V6.82715L15.4127 6.82717ZM1.74945 15H0.852345V12.4342H1.74946L1.74945 15ZM18.8846 15H17.9875V12.4342H18.8846L18.8846 15Z" fill="black"/>
</svg>
