<svg width="20" height="15" viewBox="0 0 20 15" fill="none" xmlns="http://www.w3.org/2000/svg">
<path d="M19.1667 6H18.1582L15.7995 0.69279C15.7077 0.486665 15.5582 0.311541 15.369 0.188594C15.1798 0.0656464 14.959 0.000141594 14.7334 0H4.93327C4.70762 0.000140862 4.48685 0.0656544 4.29766 0.188617C4.10846 0.31158 3.95894 0.486726 3.86718 0.692871L1.50844 6H0.5C0.367392 6 0.240215 6.05268 0.146447 6.14645C0.0526784 6.24022 0 6.36739 0 6.5C0 6.63261 0.0526784 6.75979 0.146447 6.85355C0.240215 6.94732 0.367392 7 0.5 7H1.33333V13.8333C1.33368 14.1426 1.45671 14.4392 1.67542 14.6579C1.89414 14.8766 2.19069 14.9997 2.5 15H4.5C4.80931 14.9997 5.10586 14.8766 5.32457 14.6579C5.54329 14.4392 5.66632 14.1426 5.66667 13.8333V12.3333H14V13.8333C14.0003 14.1426 14.1234 14.4392 14.3421 14.6579C14.5608 14.8766 14.8574 14.9997 15.1667 15H17.1667C17.476 14.9997 17.7725 14.8766 17.9912 14.6579C18.21 14.4392 18.333 14.1426 18.3333 13.8333V7H19.1667C19.2993 7 19.4265 6.94732 19.5202 6.85355C19.614 6.75979 19.6667 6.63261 19.6667 6.5C19.6667 6.36739 19.614 6.24022 19.5202 6.14645C19.4265 6.05268 19.2993 6 19.1667 6ZM4.78092 1.09904C4.79405 1.06959 4.81541 1.04456 4.84245 1.02699C4.86948 1.00941 4.90102 1.00004 4.93327 1H14.7334C14.7656 1.00004 14.7972 1.0094 14.8242 1.02696C14.8512 1.04452 14.8726 1.06953 14.8857 1.09896L17.0639 6H2.60272L4.78092 1.09904ZM4.66667 13.8333C4.66661 13.8775 4.64903 13.9199 4.61779 13.9511C4.58654 13.9824 4.54418 13.9999 4.5 14H2.5C2.45581 13.9999 2.41346 13.9824 2.38221 13.9511C2.35097 13.9199 2.33339 13.8775 2.33333 13.8333V12.3333H4.66667V13.8333ZM17.1667 14H15.1667C15.1225 13.9999 15.0801 13.9824 15.0489 13.9511C15.0176 13.9199 15.0001 13.8775 15 13.8333V12.3333H17.3333V13.8333C17.3333 13.8775 17.3157 13.9199 17.2845 13.9511C17.2532 13.9824 17.2109 13.9999 17.1667 14ZM17.3333 11.3333H2.33333V7H17.3333V11.3333ZM4 9.16667C4.00001 9.03406 4.05269 8.90689 4.14645 8.81312C4.24022 8.71935 4.36739 8.66667 4.5 8.66667H5.83333C5.96594 8.66667 6.09312 8.71935 6.18689 8.81311C6.28065 8.90688 6.33333 9.03406 6.33333 9.16667C6.33333 9.29928 6.28065 9.42645 6.18689 9.52022C6.09312 9.61399 5.96594 9.66667 5.83333 9.66667H4.5C4.36739 9.66666 4.24022 9.61398 4.14645 9.52021C4.05269 9.42645 4.00001 9.29927 4 9.16667ZM13.3333 9.16667C13.3333 9.03406 13.386 8.90689 13.4798 8.81312C13.5736 8.71935 13.7007 8.66667 13.8333 8.66667H15.1667C15.2993 8.66667 15.4265 8.71935 15.5202 8.81311C15.614 8.90688 15.6667 9.03406 15.6667 9.16667C15.6667 9.29928 15.614 9.42645 15.5202 9.52022C15.4265 9.61399 15.2993 9.66667 15.1667 9.66667H13.8333C13.7007 9.66666 13.5736 9.61398 13.4798 9.52021C13.386 9.42645 13.3333 9.29927 13.3333 9.16667Z" fill="black"/>
</svg>
