<svg width="16" height="15" viewBox="0 0 16 15" fill="none" xmlns="http://www.w3.org/2000/svg">
<path d="M10.0698 5.61054L14.1074 1.59773L14.0943 3.87236C14.09 4.06199 14.2405 4.22698 14.4304 4.22275L14.6711 4.22252C14.861 4.21806 15.018 4.10517 15.022 3.91554L15.0319 0.527072C15.0319 0.523801 15.019 0.521219 15.019 0.517934L15.0375 0.34614C15.0394 0.250855 15.0171 0.165897 14.9556 0.105127C14.8948 0.0438726 14.8096 0.00655668 14.715 0.00913828L14.5435 0.013128C14.5402 0.013128 14.5376 0.0143015 14.5341 0.0147855L11.1679 0C10.9783 0.00422444 10.8213 0.160998 10.8171 0.350863L10.8166 0.591671C10.8455 0.815331 11.0213 0.946054 11.2109 0.94183L13.4294 0.947697L9.4061 4.9466C9.2228 5.12989 9.2228 5.42701 9.4061 5.61054C9.58939 5.7936 9.88651 5.7936 10.0698 5.61054ZM4.98263 9.38948L0.945017 13.3898L0.957925 11.1276C0.962384 10.9377 0.811698 10.7727 0.622067 10.777L0.366503 10.7774C0.176404 10.7821 0.0196153 10.8948 0.0156255 11.0846L0.00576848 14.4731C0.00576848 14.4764 0.0186765 14.4785 0.0186765 14.4823L0.000135898 14.6536C-0.00197632 14.7489 0.0203193 14.8343 0.0820431 14.8946C0.142593 14.9561 0.228021 14.9932 0.322367 14.9908L0.494161 14.9866C0.497432 14.9866 0.499779 14.9852 0.503548 14.9852L3.88449 15C4.07412 14.9953 4.23091 14.8385 4.23536 14.6489L4.23583 14.4079C4.20697 14.1847 4.03117 14.0535 3.84154 14.0577L1.62302 14.0518L5.6461 10.0534C5.82939 9.87011 5.82939 9.573 5.6461 9.38971C5.4628 9.20642 5.16591 9.20618 4.98261 9.38948H4.98263ZM15.0321 14.4729L15.0223 11.0844C15.018 10.8945 14.861 10.7819 14.6714 10.7772L14.4306 10.7767C14.2407 10.7725 14.0905 10.9377 14.0945 11.1273L14.1077 13.4019L10.0698 9.38943C9.88653 9.20614 9.58941 9.20614 9.40611 9.38943C9.22282 9.57273 9.22282 9.86984 9.40611 10.0531L13.4292 14.0516L11.2109 14.0574C11.0213 14.0532 10.8455 14.1844 10.8166 14.4076L10.8171 14.6486C10.8215 14.8385 10.9785 14.9953 11.1679 14.9997L14.5343 14.985C14.5379 14.985 14.5404 14.9863 14.5437 14.9863L14.7153 14.9906C14.8099 14.9929 14.8953 14.9558 14.9559 14.8943C15.0174 14.8338 15.0394 14.7486 15.0378 14.6533L15.0192 14.482C15.0192 14.4783 15.0321 14.4761 15.0321 14.4729L15.0321 14.4729ZM1.62304 0.948064L3.84181 0.942241C4.03144 0.946465 4.20722 0.815507 4.23609 0.592067L4.23562 0.351054C4.23091 0.161203 4.07411 0.00418043 3.88474 0.000190687L0.503548 0.0147415C0.499793 0.0142722 0.497446 0.0130987 0.494161 0.0130987L0.322367 0.00909428C0.228036 0.00652735 0.142373 0.0438432 0.0820431 0.105083C0.0203193 0.165868 -0.00196165 0.250826 0.000135898 0.346111L0.0186765 0.517904C0.0186765 0.521175 0.00576848 0.523537 0.00576848 0.527057L0.0156255 3.91553C0.0198499 4.10516 0.176638 4.21804 0.366503 4.2225L0.622082 4.22272C0.811712 4.22695 0.962135 4.06196 0.95791 3.87233L0.945002 1.61014L4.98263 5.61045C5.16569 5.79376 5.46305 5.79376 5.64636 5.61045C5.82967 5.42714 5.82966 5.1298 5.64636 4.94651L1.62304 0.948064Z" fill="black"/>
</svg>